<!--?xml version="1.0" encoding="utf-8"?-->
<!-- Generator: Adobe Illustrator 18.1.1, SVG Export Plug-In . SVG Version: 6.00 Build 0)  -->

<svg version="1.1" id="_x32_" xmlns="http://www.w3.org/2000/svg" xmlns:xlink="http://www.w3.org/1999/xlink" x="0px" y="0px" viewBox="0 0 512 512" style="width: 256px; height: 256px; opacity: 1;" xml:space="preserve">
<style type="text/css">
	.st0{fill:#4B4B4B;}
</style>
<g>
	<path class="st0" d="M244.348,227.914c2.273-0.067,4.61-0.134,6.98-0.218c-3.582-7.096-5.939-14.79-6.875-22.775
		c-0.239-0.739-0.394-1.51-0.478-2.29c-0.822-8.003-0.969-15.293,0.172-22.826c-6.925,0.21-13.544,0.336-19.94,0.454
		c-8.674,0.185-16.975,0.352-25.15,0.729c-14.282,0.663-28.274,1.972-42.682,5.193c-10.788,2.399-21.744,5.89-32.985,10.813
		c-8.435,3.683-17.029,8.162-25.938,13.54c-13.359,8.069-27.423,18.145-42.942,30.778C38.995,253.936,22.012,269.129,2.802,287.5
		l33.253,34.738c33.455-32.037,58.969-52.992,79.723-66.448c7.785-5.05,14.898-9.06,21.551-12.281
		c11.669-5.628,21.903-8.9,32.586-11.056c8.008-1.594,16.304-2.533,25.549-3.112C209.296,228.46,225.213,228.435,244.348,227.914z" style="fill: rgb(83, 103, 241);"></path>
	<path class="st0" d="M287.215,260.446c-0.394,10.612-0.57,20.292-0.751,29.201c-0.172,8.624-0.344,16.534-0.688,23.867
		c-0.293,6.417-0.718,12.382-1.367,18.061c-1.145,9.933-2.932,18.951-5.969,28.287c-2.282,7.004-5.28,14.211-9.395,22.096
		c-6.17,11.828-14.881,25.2-27.296,41.038c-12.412,15.854-28.497,34.142-49.184,55.751L227.302,512
		c33.182-34.688,56.003-62.111,72.042-86.79c6.003-9.245,11.04-18.12,15.239-26.794c7.352-15.159,12.059-29.755,14.919-44.1
		c2.152-10.755,3.288-21.316,3.959-31.961c0.998-15.99,0.982-32.188,1.502-50.568c0.096-3.439,0.202-6.954,0.34-10.562
		C319.759,266.754,302.608,266.494,287.215,260.446z" style="fill: rgb(83, 103, 241);"></path>
	<path class="st0" d="M352.614,156.585c-3.339-3.339-7.017-6.116-10.889-8.448l61.054-133.608L380.75,0
		c0,0-78.645,102.041-90.641,117.829c-34.507,45.392-37.192,60.936-34.88,83.653l0.243-0.118c1.016,13.07,6.51,25.854,16.505,35.853
		c22.268,22.264,58.373,22.255,80.633,0C374.878,214.946,374.878,178.848,352.614,156.585z M328.236,212.84
		c-8.804,8.8-23.078,8.8-31.877,0c-8.804-8.808-8.804-23.078,0-31.877c8.8-8.808,23.073-8.808,31.877,0
		C337.036,189.762,337.036,204.031,328.236,212.84z" style="fill: rgb(83, 103, 241);"></path>
	<path class="st0" d="M494.669,106.42l-123.214,56.297c12.986,22.49,12.113,50.835-2.617,72.537
		c6.635-4.396,14.059-9.731,22.532-16.173c15.788-11.996,117.829-90.632,117.829-90.632L494.669,106.42z" style="fill: rgb(83, 103, 241);"></path>
</g>
</svg>
